<?xml version="1.0" standalone="no"?>
<!DOCTYPE svg PUBLIC "-//W3C//DTD SVG 20010904//EN"
 "http://www.w3.org/TR/2001/REC-SVG-20010904/DTD/svg10.dtd">
<svg version="1.0" xmlns="http://www.w3.org/2000/svg"
 width="192.000000pt" height="192.000000pt" viewBox="0 0 192.000000 192.000000"
 preserveAspectRatio="xMidYMid meet">

<g transform="translate(0.000000,192.000000) scale(0.100000,-0.100000)"
fill="#000000" stroke="none">
<path d="M133 1795 c-28 -20 -29 -46 -5 -68 15 -14 41 -17 133 -17 l115 0 74
-437 c40 -241 75 -450 78 -465 2 -17 0 -28 -7 -28 -31 0 -92 -56 -117 -107
-36 -73 -30 -145 18 -207 32 -42 77 -76 101 -76 32 -1 37 -15 22 -65 -47 -153
90 -297 250 -263 86 18 165 115 165 204 0 11 -6 42 -14 67 l-14 47 189 0 c104
0 189 -2 189 -4 0 -2 -7 -20 -15 -39 -20 -48 -19 -103 4 -152 77 -169 302
-172 386 -6 13 26 16 51 13 100 -3 36 -8 74 -13 83 -6 16 -1 18 43 18 75 0
104 38 62 80 -20 20 -33 20 -636 20 l-616 0 -29 29 c-41 42 -41 107 0 153 l29
33 574 5 c315 3 574 7 574 8 10 14 23 85 69 361 51 304 54 340 32 363 -1 2
-287 5 -636 8 l-635 5 -28 170 c-16 93 -33 174 -39 180 -5 6 -72 11 -152 13
-118 2 -146 0 -164 -13z m601 -463 c2 -4 6 -30 7 -57 l3 -50 -88 -3 c-49 -2
-92 1 -96 5 -4 4 -10 32 -14 61 l-7 52 95 0 c52 0 97 -3 100 -8z m336 -52 l0
-60 -110 0 c-123 0 -110 -8 -125 83 l-6 37 121 0 120 0 0 -60z m333 53 c2 -5
1 -30 -2 -58 l-6 -50 -112 -3 -113 -3 0 61 0 60 114 0 c63 0 117 -3 119 -7z
m292 -39 c-11 -77 -7 -74 -112 -74 l-94 0 6 38 c15 90 4 82 111 82 l96 0 -7
-46z m-931 -181 c3 -10 6 -36 8 -58 l3 -40 -91 -3 -91 -3 -7 32 c-3 17 -6 44
-6 60 l0 29 89 0 c77 0 90 -3 95 -17z m304 -46 l3 -58 -98 3 -98 3 -7 49 c-4
28 -5 54 -2 58 3 5 49 7 102 6 l97 -3 3 -58z m306 55 c3 -5 2 -30 -2 -58 l-7
-49 -98 -3 -97 -3 0 61 0 60 99 0 c55 0 102 -4 105 -8z m288 3 c2 -3 0 -30 -5
-60 l-10 -55 -92 0 c-103 0 -94 -9 -80 83 l6 37 88 0 c48 0 90 -2 93 -5z
m-868 -231 c3 -9 6 -36 6 -60 l0 -44 -84 0 -84 0 -11 50 c-6 28 -11 55 -11 60
0 6 39 10 89 10 72 0 90 -3 95 -16z m274 -41 l-3 -58 -74 -3 c-41 -2 -77 1
-81 5 -4 4 -10 32 -14 61 l-7 52 91 0 91 0 -3 -57z m277 10 c-10 -76 -7 -73
-95 -73 l-80 0 0 60 0 60 91 0 90 0 -6 -47z m280 10 c-15 -90 -6 -83 -100 -83
l-85 0 0 38 c0 81 2 82 102 82 l89 0 -6 -37z m-804 -532 c23 -24 29 -38 29
-73 -1 -100 -106 -144 -176 -74 -70 70 -26 175 74 176 35 0 49 -6 73 -29z
m735 11 c55 -44 59 -109 10 -158 -70 -70 -175 -26 -176 74 0 61 41 102 102
102 26 0 52 -7 64 -18z"/>
</g>
</svg>
